<svg width="2101" height="1288" viewBox="0 0 2101 1288" fill="none" xmlns="http://www.w3.org/2000/svg">
<rect x="51" y="72" width="537" height="340" rx="26" fill="#FFEAEA"/>
<rect x="655" y="72" width="385" height="340" rx="26" fill="#FFEDE1"/>
<rect x="1107" y="72" width="328" height="340" rx="26" fill="#E1EEFF"/>
<rect x="1502" y="72" width="537" height="340" rx="26" fill="#E1FFE2"/>
<rect x="51" y="474" width="630" height="340" rx="26" fill="#E1FFF2"/>
<rect x="779.5" y="474" width="531" height="340" rx="26" fill="#E1FFE1"/>
<rect x="1409" y="474" width="630" height="340" rx="26" fill="#FFFBE1"/>
<rect x="51" y="876" width="486" height="340" rx="26" fill="#E7E1FF"/>
<rect x="605" y="876" width="484" height="340" rx="26" fill="#FFE1E1"/>
<rect x="1157" y="876" width="486" height="340" rx="26" fill="#E1FFEF"/>
<rect x="1711" y="876" width="328" height="340" rx="26" fill="#E2E1FF"/>
<rect x="802" y="438" width="477" height="412" rx="101" fill="#ACFFAC"/>
<path d="M1368 963L1230.16 825.161M1303.89 642.444C1303.89 784.075 1189.07 898.889 1047.44 898.889C905.814 898.889 791 784.075 791 642.444C791 500.814 905.814 386 1047.44 386C1189.07 386 1303.89 500.814 1303.89 642.444Z" stroke="#414141" stroke-width="50" stroke-linecap="round" stroke-linejoin="round"/>
</svg>
